# xmcd
#
# Track frame offsets: 
#        150
#        22223
#        39656
#        57916
#
# Disc length: 1067 seconds
#
# Revision: 0
# Processed by: cddbd v1.5.2PL0 Copyright (c) Steve Scherf et al.
# Submitted via: ExactAudioCopy v1.0b3
#
DISCID=32042904
DTITLE=Notkea Rotta - Pöhinää [CDM)
DYEAR=2001
DGENRE=Hip-Hop
TTITLE0=Pöhinää
TTITLE1=Rautaperse - Rautaperse
TTITLE2=Pöhinää (Radio Edit)
TTITLE3=Pöhinää (Instrumental)
EXTD=
EXTT0=
EXTT1=
EXTT2=
EXTT3=
PLAYORDER=
